<?xml version="1.0" encoding="utf-8"?>
<!-- Generator: Adobe Illustrator 16.0.0, SVG Export Plug-In . SVG Version: 6.00 Build 0)  -->
<!DOCTYPE svg PUBLIC "-//W3C//DTD SVG 1.1//EN" "http://www.w3.org/Graphics/SVG/1.1/DTD/svg11.dtd">
<svg version="1.1" id="Layer_1" xmlns="http://www.w3.org/2000/svg" xmlns:xlink="http://www.w3.org/1999/xlink" x="0px" y="0px"
	 width="4072px" height="3488px" viewBox="0 0 4072 3488" enable-background="new 0 0 4072 3488" xml:space="preserve">
<g>
	<path fill-rule="evenodd" clip-rule="evenodd" d="M3741.57,616.43c0.334,43.062-5.051,84.364-12.623,125.341
		c-9.92,53.694-19.273,107.572-31.768,160.69c-12.414,52.782-28.135,104.801-42.93,157.007
		c-12.621,44.537-25.654,88.95-33.885,134.581c-7.363,40.822-11.229,81.844-6.969,123.334c2.598,25.299,9.373,49.676,15.781,74.17
		c18.674,71.395,48.639,137.343,93.291,196.397c12.057,15.945,23.475,32.375,35.135,48.617
		c46.25,64.428,92.996,128.509,138.545,193.429c32.93,46.936,62.996,95.758,88.475,147.238
		c13.762,27.807,26.105,56.209,32.865,86.667c8.281,37.314,10.662,75.197,9.359,113.27c-1.68,49.133-9.611,97.244-22.965,144.682
		c-14.691,52.193-45.322,92.002-89.115,122.721c-35.814,25.117-75.342,42.469-116.598,56.219
		c-47.807,15.936-96.803,27.176-146.363,35.922c-106.252,18.752-212.559,37.182-318.84,55.762
		c-100.377,17.547-200.789,34.898-301.102,52.803c-32.109,5.732-64.324,11.557-95.805,19.92
		c-27.166,7.219-54.813,10.893-82.225,16.26c-44.17,8.65-83.92,27.682-121.094,52.588c-33.346,22.34-64.102,47.908-92.561,76.086
		c-53.578,53.045-110.807,102-167.551,151.521c-69.055,60.266-138.086,120.563-206.713,181.314
		c-18.943,16.77-36.723,34.896-54.486,52.943c-41.283,41.938-86.779,78.887-133.863,113.961
		c-50.565,37.668-102.799,72.834-158.847,101.912c-18.59,9.645-37.852,18.113-57.228,26.096
		c-25.965,10.697-52.789,14.623-81.156,10.986c-60.313-7.729-118.34-22.652-172.722-50.32
		c-74.874-38.094-135.463-92.172-178.426-164.479c-29.426-49.523-56.526-100.441-84.241-150.971
		c-53.197-96.982-106.261-194.037-164.238-288.289c-30.739-49.973-62.484-99.283-99.021-145.309
		c-6.627-8.35-13.627-16.408-20.6-24.475c-16.939-19.6-36.8-35.609-59.196-48.646c-34.609-20.145-70.688-37.316-107.219-53.57
		c-102.607-45.652-207.448-85.723-313.098-123.623c-91.83-32.945-183.849-65.434-276.402-96.268
		c-67.341-22.434-123.687-60.105-170.165-113.076c-41.861-47.711-73.219-101.328-90.326-162.911
		c-9.181-33.047-8.787-66.559-6.465-100.215c4.315-62.529,27.916-118.129,61.869-169.908
		c30.479-46.483,66.849-88.093,105.882-127.456c64.682-65.229,135.512-123.317,208.143-179.357
		c74.669-57.613,149.254-115.343,223.258-173.805c22.699-17.933,43.717-38.066,64.848-57.892
		c16.888-15.844,29.712-34.912,40.635-55.371c16.466-30.841,33.407-61.43,50.29-92.047c13.657-24.769,21.398-51.626,27.863-78.881
		c11.005-46.396,17.965-93.517,24.22-140.737c11.549-87.17,22.2-174.466,34.612-261.511c11.334-79.491,26.465-158.312,49.373-235.43
		c15.501-52.182,34.287-103.09,62.076-150.122c10.309-17.447,21.913-34.264,34.262-50.343
		c32.849-42.772,76.353-70.501,126.676-88.887c56.181-20.527,113.655-30.888,173.51-25.935
		c41.421,3.428,81.698,12.646,120.534,27.064c41.191,15.291,81.646,32.551,122.586,48.529
		c78.173,30.51,156.413,60.847,234.715,91.022c109.38,42.152,218.76,84.309,328.309,126.022
		c49.166,18.722,98.838,35.987,149.742,49.657c43.504,11.684,87.344,12.933,131.84,8.635
		c111.857-10.807,222.359-30.372,332.764-50.631c168.037-30.833,335.277-65.604,501.994-102.836
		c45.479-10.156,91.088-16.642,137.641-15.222c52.137,1.589,102.551,11.382,149.979,33.951
		c42.266,20.113,78.119,48.426,106.537,85.636c38.764,50.758,69.17,105.914,85.748,168.047
		C3737.629,544.533,3742.111,580.791,3741.57,616.43z"/>
</g>
</svg>
